<?xml version="1.0" standalone="no"?>
<!DOCTYPE svg PUBLIC "-//W3C//DTD SVG 20010904//EN"
 "http://www.w3.org/TR/2001/REC-SVG-20010904/DTD/svg10.dtd">
<svg version="1.0" xmlns="http://www.w3.org/2000/svg"
 width="500.000000pt" height="500.000000pt" viewBox="0 0 500.000000 500.000000"
 preserveAspectRatio="xMidYMid meet">

<g transform="translate(0.000000,500.000000) scale(0.100000,-0.100000)"
fill="#000000" stroke="none">
<path d="M2462 4325 c-16 -7 -32 -20 -35 -28 -3 -8 -24 -181 -47 -384 -23
-202 -45 -376 -48 -386 -5 -12 -56 91 -167 334 -107 236 -168 358 -185 371
-39 31 -102 12 -120 -37 -6 -14 18 -151 70 -410 l78 -387 -38 38 c-20 22 -140
151 -265 287 -125 137 -239 253 -253 258 -31 12 -78 -5 -92 -32 -22 -41 -6
-78 176 -403 103 -182 189 -335 192 -339 6 -12 -27 6 -363 196 -165 93 -312
173 -326 177 -58 17 -118 -56 -90 -109 6 -11 139 -137 296 -281 157 -145 285
-264 285 -265 0 -1 -170 32 -377 74 -418 86 -431 86 -459 28 -18 -39 -7 -78
28 -100 13 -8 175 -84 361 -168 295 -135 335 -155 310 -161 -15 -4 -189 -26
-386 -48 -197 -22 -366 -44 -377 -50 -44 -23 -44 -110 0 -138 11 -7 181 -30
378 -52 196 -22 370 -44 385 -48 25 -6 -16 -27 -320 -165 -191 -88 -357 -167
-367 -178 -24 -22 -27 -79 -6 -104 32 -39 48 -37 445 44 212 43 385 77 385 76
0 -1 -128 -120 -285 -265 -157 -144 -290 -270 -296 -281 -25 -47 17 -113 71
-111 19 0 143 65 347 180 175 99 328 185 341 191 29 15 48 53 -179 -350 -176
-310 -192 -347 -169 -388 14 -28 61 -44 92 -32 14 5 144 138 289 295 144 158
263 285 264 284 1 -2 -31 -165 -71 -363 -41 -198 -74 -377 -75 -399 -1 -27 5
-44 20 -59 25 -26 82 -28 108 -4 10 9 90 174 178 366 110 240 162 345 167 333
3 -9 25 -183 48 -386 23 -203 47 -377 53 -387 16 -25 62 -40 90 -30 52 20 54
27 97 406 22 198 44 373 48 388 6 24 28 -17 167 -323 88 -193 168 -359 178
-368 22 -20 79 -21 102 -2 38 31 36 49 -44 444 -43 212 -78 386 -76 386 1 0
120 -129 265 -286 145 -157 274 -290 288 -295 31 -12 78 5 92 32 26 47 24 50
-367 742 -7 12 26 -6 361 -196 166 -93 312 -173 326 -177 55 -16 116 53 92
104 -6 13 -139 142 -296 286 -157 145 -286 264 -286 265 0 2 173 -33 385 -76
397 -81 413 -83 445 -44 21 25 18 82 -5 104 -11 11 -177 90 -368 178 -304 138
-345 159 -320 165 15 4 190 26 387 48 380 42 386 44 407 97 11 28 -7 80 -32
93 -10 6 -180 28 -376 50 -197 22 -371 44 -386 48 -24 6 16 27 310 161 186 84
348 160 361 168 35 22 46 61 28 100 -28 58 -41 58 -458 -28 -208 -42 -378 -75
-378 -74 0 1 126 118 281 260 154 142 287 268 296 281 34 53 -24 132 -86 114
-14 -4 -161 -84 -327 -177 -336 -191 -368 -208 -361 -196 391 692 393 695 367
742 -14 27 -61 44 -92 32 -14 -5 -143 -138 -288 -295 -145 -157 -264 -286
-265 -286 -2 0 31 163 71 363 41 199 75 379 75 401 2 45 -21 73 -66 82 -56 11
-70 -12 -240 -385 -110 -242 -162 -346 -167 -334 -3 10 -25 184 -48 388 -36
324 -43 372 -61 391 -26 28 -59 34 -97 19z"/>
</g>
</svg>
