<?xml version="1.0" standalone="no"?>
<!DOCTYPE svg PUBLIC "-//W3C//DTD SVG 20010904//EN"
 "http://www.w3.org/TR/2001/REC-SVG-20010904/DTD/svg10.dtd">
<svg version="1.0" xmlns="http://www.w3.org/2000/svg"
 width="500.000000pt" height="500.000000pt" viewBox="0 0 500.000000 500.000000"
 preserveAspectRatio="xMidYMid meet">

<g transform="translate(0.000000,500.000000) scale(0.100000,-0.100000)"
fill="#000000" stroke="none">
<path d="M2461 4298 c-71 -364 -158 -673 -243 -861 -231 -512 -578 -715 -1546
-904 -78 -15 -142 -30 -142 -33 0 -3 42 -14 93 -24 617 -116 978 -239 1214
-415 303 -225 454 -551 613 -1316 26 -126 50 -223 53 -215 3 8 19 89 37 180
75 398 167 706 271 918 160 324 394 518 789 657 134 47 431 122 678 171 105
21 192 41 192 44 0 3 -87 23 -192 44 -437 87 -762 187 -952 290 -341 186 -534
464 -672 965 -36 132 -113 475 -135 599 -7 39 -15 72 -18 72 -4 0 -22 -78 -40
-172z"/>
</g>
</svg>
