<?xml version="1.0" standalone="no"?>
<!DOCTYPE svg PUBLIC "-//W3C//DTD SVG 20010904//EN"
 "http://www.w3.org/TR/2001/REC-SVG-20010904/DTD/svg10.dtd">
<svg version="1.0" xmlns="http://www.w3.org/2000/svg"
 width="1337.000000pt" height="2138.000000pt" viewBox="0 0 1337.000000 2138.000000"
 preserveAspectRatio="xMidYMid meet">

<g transform="translate(0.000000,2138.000000) scale(0.100000,-0.100000)"
fill="#000000" stroke="none">
<path d="M6163 12018 c3 -7909 4 -8123 24 -8938 12 -459 20 -836 19 -837 -1
-2 -1215 1236 -2696 2750 -1482 1513 -2697 2752 -2700 2752 -3 0 -148 -150
-323 -333 l-318 -333 103 -108 c57 -59 1538 -1618 3293 -3464 l3190 -3357 26
28 c14 15 1461 1537 3214 3382 1753 1845 3215 3383 3249 3418 l61 62 -25 70
c-24 68 -33 79 -290 350 -146 153 -270 278 -277 277 -10 -2 -5183 -5287 -5425
-5543 l-77 -82 -6 202 c-2 110 -7 4162 -10 9004 l-6 8802 -515 0 -514 0 3
-8102z"/>
</g>
</svg>
