<?xml version="1.0" standalone="no"?>
<!DOCTYPE svg PUBLIC "-//W3C//DTD SVG 20010904//EN"
 "http://www.w3.org/TR/2001/REC-SVG-20010904/DTD/svg10.dtd">
<svg version="1.0" xmlns="http://www.w3.org/2000/svg"
 width="1080.000000pt" height="1080.000000pt" viewBox="0 0 1080.000000 1080.000000"
 preserveAspectRatio="xMidYMid meet">

<g transform="translate(0.000000,1080.000000) scale(0.100000,-0.100000)"
fill="#000000" stroke="none">
<path d="M5258 8320 c-73 -12 -192 -52 -271 -91 -180 -91 -325 -242 -412 -432
-66 -145 -85 -260 -85 -519 l0 -168 -395 0 c-217 0 -395 -2 -395 -4 0 -3 -121
-1042 -270 -2309 -148 -1268 -270 -2310 -270 -2316 0 -8 590 -11 2240 -11
l2240 0 0 23 c0 12 -122 1055 -270 2317 -149 1262 -270 2296 -270 2297 0 2
-178 3 -395 3 l-395 0 0 189 c0 215 -15 322 -60 439 -65 168 -181 322 -316
418 -78 55 -206 116 -304 144 -86 24 -280 34 -372 20z m341 -285 c183 -58 347
-217 411 -397 30 -87 40 -171 40 -355 l0 -173 -651 0 -652 0 5 213 c5 199 7
217 33 296 78 230 271 398 507 441 83 14 215 4 307 -25z m-908 -1282 c66 -39
77 -140 21 -196 -71 -70 -205 -31 -212 63 -5 64 1 83 36 116 29 28 43 34 81
34 25 0 58 -8 74 -17z m1563 -4 c58 -45 71 -114 33 -170 -31 -46 -62 -61 -120
-56 -159 13 -147 247 12 247 34 0 56 -6 75 -21z m-504 -1349 l0 -350 355 0
355 0 0 -350 0 -350 -355 0 -355 0 0 -355 0 -355 -350 0 -350 0 0 355 0 355
-355 0 -355 0 0 350 0 350 355 0 355 0 0 350 0 350 350 0 350 0 0 -350z"/>
</g>
</svg>
